<svg xmlns="http://www.w3.org/2000/svg" xmlns:xlink="http://www.w3.org/1999/xlink" width="500" zoomAndPan="magnify" viewBox="0 0 375 374.999991" height="500" preserveAspectRatio="xMidYMid meet" version="1.0"><defs><clipPath id="58940f15d3"><path d="M 10.390625 276 L 364.390625 276 L 364.390625 286 L 10.390625 286 Z M 10.390625 276 " clip-rule="nonzero"/></clipPath><clipPath id="a0d9320f5f"><path d="M 135 306 L 240 306 L 240 315.773438 L 135 315.773438 Z M 135 306 " clip-rule="nonzero"/></clipPath></defs><path fill="#0e1550" d="M 121.273438 187.710938 L 121.273438 249.878906 L 123.910156 249.878906 L 123.910156 223.246094 L 130.835938 215.863281 L 138.375 218.015625 L 138.375 247.664062 L 140.664062 248.320312 L 140.664062 211.703125 L 145.328125 208.835938 L 145.328125 193.253906 L 153.707031 184.324219 L 161.4375 192.558594 L 161.4375 253.089844 L 164.140625 253.863281 L 164.140625 223.109375 L 166.554688 224.597656 L 166.554688 205.09375 L 170.574219 206.242188 L 170.574219 194.019531 L 175.472656 195.417969 L 182.867188 187.539062 L 182.867188 241.914062 L 184.574219 241.914062 L 184.574219 213.253906 L 193.753906 203.46875 L 193.753906 254.640625 L 195.21875 271.6875 L 195.21875 194.984375 L 212.851562 213.773438 L 212.851562 233.515625 L 215.800781 233.515625 L 215.800781 203.90625 L 222.277344 199.921875 L 222.277344 187.625 L 227.316406 182.257812 L 241.457031 197.320312 L 241.457031 248.40625 L 244.769531 248.40625 L 244.769531 232.023438 L 250.816406 225.582031 L 261.621094 228.664062 L 261.621094 198.605469 L 266.332031 195.707031 L 280.785156 204.597656 L 280.785156 245.636719 L 283.789062 245.636719 L 283.789062 202.359375 L 289.164062 199.054688 L 289.164062 181.988281 L 291.855469 184.855469 L 291.855469 204.558594 L 295.574219 206.847656 L 295.574219 244.597656 L 298.660156 244.597656 L 298.660156 208.925781 L 306.785156 201.824219 L 306.785156 254.121094 L 308.898438 254.121094 L 308.898438 224.683594 L 322.0625 232.476562 L 322.0625 276.535156 L 52.722656 276.535156 L 52.722656 227.023438 L 61.109375 221.859375 L 71.800781 233.253906 L 71.800781 190.0625 L 77.585938 183.898438 L 86.882812 189.617188 L 86.882812 245.136719 L 88.933594 245.722656 L 88.933594 234.988281 L 91.855469 234.988281 L 91.855469 215.242188 L 96.402344 210.394531 L 96.402344 192.550781 L 108.386719 179.78125 Z M 121.273438 187.710938 " fill-opacity="1" fill-rule="evenodd"/><path fill="#09d1e3" d="M 225.789062 188.988281 C 204.671875 210.125 170.109375 210.125 148.992188 188.988281 C 127.875 167.851562 127.875 133.265625 148.992188 112.132812 C 170.109375 90.996094 204.671875 90.996094 225.789062 112.132812 C 246.90625 133.265625 246.90625 167.851562 225.789062 188.988281 M 246.15625 209.367188 L 187.394531 268.175781 L 128.628906 209.367188 C 96.308594 177.023438 96.308594 124.097656 128.628906 91.753906 C 160.949219 59.410156 213.832031 59.410156 246.152344 91.753906 L 246.15625 91.753906 C 278.472656 124.097656 278.472656 177.023438 246.15625 209.367188 Z M 246.15625 209.367188 " fill-opacity="1" fill-rule="evenodd"/><g clip-path="url(#58940f15d3)"><path fill="#09d1e3" d="M 52.71875 276.535156 L 322.0625 276.535156 C 345.351562 276.535156 364.390625 278.59375 364.390625 281.109375 C 364.390625 283.628906 345.351562 285.6875 322.0625 285.6875 L 52.71875 285.6875 C 29.429688 285.6875 10.390625 283.628906 10.390625 281.109375 C 10.390625 278.59375 29.429688 276.535156 52.71875 276.535156 " fill-opacity="1" fill-rule="evenodd"/></g><path fill="#09d1e3" d="M 127.742188 291.511719 L 247.039062 291.511719 C 270.328125 291.511719 289.367188 293.570312 289.367188 296.089844 C 289.367188 298.609375 270.328125 300.667969 247.039062 300.667969 L 127.742188 300.667969 C 104.453125 300.667969 85.414062 298.609375 85.414062 296.089844 C 85.414062 293.570312 104.453125 291.511719 127.742188 291.511719 " fill-opacity="1" fill-rule="evenodd"/><g clip-path="url(#a0d9320f5f)"><path fill="#09d1e3" d="M 177.765625 306.492188 L 197.015625 306.492188 C 220.304688 306.492188 239.34375 308.550781 239.34375 311.066406 C 239.34375 313.585938 220.304688 315.644531 197.015625 315.644531 L 177.765625 315.644531 C 154.476562 315.644531 135.4375 313.585938 135.4375 311.066406 C 135.4375 308.550781 154.476562 306.492188 177.765625 306.492188 " fill-opacity="1" fill-rule="evenodd"/></g></svg>